<svg xmlns="http://www.w3.org/2000/svg" width="1080" height="1080" viewBox="0 0 1080 1080">
  <defs>
    <linearGradient id="bg2" x1="0%" y1="0%" x2="100%" y2="100%">
      <stop offset="0%" style="stop-color:#0f0c29"/>
      <stop offset="50%" style="stop-color:#302b63"/>
      <stop offset="100%" style="stop-color:#24243e"/>
    </linearGradient>
    <linearGradient id="accent2" x1="0%" y1="0%" x2="100%" y2="0%">
      <stop offset="0%" style="stop-color:#f953c6"/>
      <stop offset="100%" style="stop-color:#b91d73"/>
    </linearGradient>
  </defs>
  <rect width="1080" height="1080" fill="url(#bg2)"/>
  <!-- Grid pattern -->
  <g opacity="0.04" stroke="#ffffff" stroke-width="1">
    <line x1="0" y1="120" x2="1080" y2="120"/>
    <line x1="0" y1="240" x2="1080" y2="240"/>
    <line x1="0" y1="360" x2="1080" y2="360"/>
    <line x1="0" y1="480" x2="1080" y2="480"/>
    <line x1="0" y1="600" x2="1080" y2="600"/>
    <line x1="0" y1="720" x2="1080" y2="720"/>
    <line x1="0" y1="840" x2="1080" y2="840"/>
    <line x1="0" y1="960" x2="1080" y2="960"/>
    <line x1="120" y1="0" x2="120" y2="1080"/>
    <line x1="240" y1="0" x2="240" y2="1080"/>
    <line x1="360" y1="0" x2="360" y2="1080"/>
    <line x1="480" y1="0" x2="480" y2="1080"/>
    <line x1="600" y1="0" x2="600" y2="1080"/>
    <line x1="720" y1="0" x2="720" y2="1080"/>
    <line x1="840" y1="0" x2="840" y2="1080"/>
    <line x1="960" y1="0" x2="960" y2="1080"/>
  </g>
  <!-- Floating paperclips -->
  <g transform="translate(160, 180) rotate(-15)" opacity="0.6">
    <path d="M30 16 C30 7, 37 0, 46 0 C55 0, 62 7, 62 16 L62 84 C62 97, 51 108, 38 108 C25 108, 14 97, 14 84 L14 32 C14 23, 21 16, 30 16Z" fill="none" stroke="#f953c6" stroke-width="5" stroke-linecap="round"/>
  </g>
  <g transform="translate(820, 120) rotate(20)" opacity="0.4">
    <path d="M30 16 C30 7, 37 0, 46 0 C55 0, 62 7, 62 16 L62 84 C62 97, 51 108, 38 108 C25 108, 14 97, 14 84 L14 32 C14 23, 21 16, 30 16Z" fill="none" stroke="#b91d73" stroke-width="5" stroke-linecap="round"/>
  </g>
  <g transform="translate(900, 700) rotate(-30)" opacity="0.3">
    <path d="M30 16 C30 7, 37 0, 46 0 C55 0, 62 7, 62 16 L62 84 C62 97, 51 108, 38 108 C25 108, 14 97, 14 84 L14 32 C14 23, 21 16, 30 16Z" fill="none" stroke="#f953c6" stroke-width="5" stroke-linecap="round"/>
  </g>
  <!-- Stats -->
  <text x="540" y="280" font-family="system-ui, -apple-system, sans-serif" font-size="160" font-weight="900" fill="#ffffff" text-anchor="middle">10x</text>
  <text x="540" y="340" font-family="system-ui, -apple-system, sans-serif" font-size="28" font-weight="400" fill="#a0a0c0" text-anchor="middle" letter-spacing="3">FASTER DOCUMENT PROCESSING</text>
  <!-- Divider -->
  <rect x="340" y="390" width="400" height="3" rx="1.5" fill="url(#accent2)"/>
  <!-- Features -->
  <text x="540" y="480" font-family="system-ui, -apple-system, sans-serif" font-size="26" font-weight="600" fill="#ffffff" text-anchor="middle">AI-Powered Organization</text>
  <text x="540" y="540" font-family="system-ui, -apple-system, sans-serif" font-size="26" font-weight="600" fill="#ffffff" text-anchor="middle">Smart Document Linking</text>
  <text x="540" y="600" font-family="system-ui, -apple-system, sans-serif" font-size="26" font-weight="600" fill="#ffffff" text-anchor="middle">Zero-Config Setup</text>
  <!-- Logo area -->
  <text x="540" y="780" font-family="system-ui, -apple-system, sans-serif" font-size="56" font-weight="800" fill="#ffffff" text-anchor="middle" letter-spacing="-1">PaperclipAI</text>
  <text x="540" y="830" font-family="system-ui, -apple-system, sans-serif" font-size="20" fill="#8080a0" text-anchor="middle" letter-spacing="6">THE FUTURE OF FILING</text>
  <!-- CTA -->
  <rect x="370" y="880" width="340" height="56" rx="28" fill="url(#accent2)"/>
  <text x="540" y="915" font-family="system-ui, -apple-system, sans-serif" font-size="20" font-weight="700" fill="#ffffff" text-anchor="middle" letter-spacing="1">Get Early Access</text>
</svg>