<svg xmlns="http://www.w3.org/2000/svg" viewBox="0 0 800 400" width="800" height="400">
  <defs>
    <clipPath id="textClip2">
      <text x="400" y="260" font-family="Arial, Helvetica, sans-serif" font-size="220" font-weight="900" text-anchor="middle" letter-spacing="12">AROS</text>
    </clipPath>
  </defs>

  <!-- Background -->
  <rect width="800" height="400" fill="#fafaf9"/>

  <!-- Geometric pattern clipped to AROS text -->
  <g clip-path="url(#textClip2)">
    <!-- Base fill -->
    <rect width="800" height="400" fill="#0d9488"/>

    <!-- Hexagonal grid -->
    <g stroke="#5eead4" stroke-width="1.5" fill="none" opacity="0.5">
      <!-- Row 1 -->
      <polygon points="50,40 90,17 130,40 130,80 90,103 50,80"/>
      <polygon points="130,40 170,17 210,40 210,80 170,103 130,80"/>
      <polygon points="210,40 250,17 290,40 290,80 250,103 210,80"/>
      <polygon points="290,40 330,17 370,40 370,80 330,103 290,80"/>
      <polygon points="370,40 410,17 450,40 450,80 410,103 370,80"/>
      <polygon points="450,40 490,17 530,40 530,80 490,103 450,80"/>
      <polygon points="530,40 570,17 610,40 610,80 570,103 530,80"/>
      <polygon points="610,40 650,17 690,40 690,80 650,103 610,80"/>
      <polygon points="690,40 730,17 770,40 770,80 730,103 690,80"/>
      <!-- Row 2 (offset) -->
      <polygon points="90,103 130,80 170,103 170,143 130,166 90,143"/>
      <polygon points="170,103 210,80 250,103 250,143 210,166 170,143"/>
      <polygon points="250,103 290,80 330,103 330,143 290,166 250,143"/>
      <polygon points="330,103 370,80 410,103 410,143 370,166 330,143"/>
      <polygon points="410,103 450,80 490,103 490,143 450,166 410,143"/>
      <polygon points="490,103 530,80 570,103 570,143 530,166 490,143"/>
      <polygon points="570,103 610,80 650,103 650,143 610,166 570,143"/>
      <polygon points="650,103 690,80 730,103 730,143 690,166 650,143"/>
      <!-- Row 3 -->
      <polygon points="50,166 90,143 130,166 130,206 90,229 50,206"/>
      <polygon points="130,166 170,143 210,166 210,206 170,229 130,206"/>
      <polygon points="210,166 250,143 290,166 290,206 250,229 210,206"/>
      <polygon points="290,166 330,143 370,166 370,206 330,229 290,206"/>
      <polygon points="370,166 410,143 450,166 450,206 410,229 370,206"/>
      <polygon points="450,166 490,143 530,166 530,206 490,229 450,206"/>
      <polygon points="530,166 570,143 610,166 610,206 570,229 530,206"/>
      <polygon points="610,166 650,143 690,166 690,206 650,229 610,206"/>
      <polygon points="690,166 730,143 770,166 770,206 730,229 690,206"/>
      <!-- Row 4 (offset) -->
      <polygon points="90,229 130,206 170,229 170,269 130,292 90,269"/>
      <polygon points="170,229 210,206 250,229 250,269 210,292 170,269"/>
      <polygon points="250,229 290,206 330,229 330,269 290,292 250,269"/>
      <polygon points="330,229 370,206 410,229 410,269 370,292 330,269"/>
      <polygon points="410,229 450,206 490,229 490,269 450,292 410,269"/>
      <polygon points="490,229 530,206 570,229 570,269 530,292 490,269"/>
      <polygon points="570,229 610,206 650,229 650,269 610,292 570,269"/>
      <polygon points="650,229 690,206 730,229 730,269 690,292 650,269"/>
      <!-- Row 5 -->
      <polygon points="50,292 90,269 130,292 130,332 90,355 50,332"/>
      <polygon points="130,292 170,269 210,292 210,332 170,355 130,332"/>
      <polygon points="210,292 250,269 290,292 290,332 250,355 210,332"/>
      <polygon points="290,292 330,269 370,292 370,332 330,355 290,332"/>
      <polygon points="370,292 410,269 450,292 450,332 410,355 370,332"/>
      <polygon points="450,292 490,269 530,292 530,332 490,355 450,332"/>
      <polygon points="530,292 570,269 610,292 610,332 570,355 530,332"/>
      <polygon points="610,292 650,269 690,292 690,332 650,355 610,332"/>
      <polygon points="690,292 730,269 770,292 770,332 730,355 690,332"/>
    </g>

    <!-- Radial accent lines from center -->
    <g stroke="#99f6e4" stroke-width="2" opacity="0.35">
      <line x1="400" y1="200" x2="0" y2="0"/>
      <line x1="400" y1="200" x2="800" y2="0"/>
      <line x1="400" y1="200" x2="800" y2="400"/>
      <line x1="400" y1="200" x2="0" y2="400"/>
      <line x1="400" y1="200" x2="400" y2="0"/>
      <line x1="400" y1="200" x2="400" y2="400"/>
      <line x1="400" y1="200" x2="0" y2="200"/>
      <line x1="400" y1="200" x2="800" y2="200"/>
    </g>
  </g>

  <!-- Corner dots -->
  <circle cx="24" cy="24" r="4" fill="#0d9488" opacity="0.4"/>
  <circle cx="776" cy="24" r="4" fill="#0d9488" opacity="0.4"/>
  <circle cx="24" cy="376" r="4" fill="#0d9488" opacity="0.4"/>
  <circle cx="776" cy="376" r="4" fill="#0d9488" opacity="0.4"/>

  <!-- Subtle border -->
  <rect x="1" y="1" width="798" height="398" fill="none" stroke="#0d9488" stroke-width="2" rx="4" opacity="0.25"/>
</svg>
